<svg width="960" height="960" viewBox="0 0 960 960" fill="none" xmlns="http://www.w3.org/2000/svg">
<style>
  .bg {
    fill: #FAF7F0;
  }
  .text {
    fill: #26241E;
  }
  .score {
    fill: #7A3040;
  }
  @media (prefers-color-scheme: dark) {
    .bg {
      fill: #7A3040;
    }
    .text {
      fill: #FAF7F0;
    }
    .score {
      fill: #FAF7F0;
    }
  }
</style>
<g clip-path="url(#clip0_2204_2)">
<rect class="bg" width="960" height="960" rx="90"/>
<path class="text" d="M465.68 633.28C464.827 707.093 414.267 744 314 744H91.28V724.16H151.44V322.88H91.28V303.04H315.28C355.813 303.04 387.6 312.853 410.64 332.48C434.107 352.107 445.84 377.28 445.84 408C445.84 438.72 436.453 463.467 417.68 482.24C398.907 501.013 374.8 512.96 345.36 518.08C373.52 518.507 399.333 527.253 422.8 544.32C452.24 565.653 466.533 595.307 465.68 633.28ZM382.48 411.84C382.48 352.533 356.24 322.88 303.76 322.88H209.68V510.4H293.52C314 510.4 332.773 503.573 349.84 489.92C371.6 472 382.48 445.973 382.48 411.84ZM361.36 707.52C384.4 692.16 395.707 666.56 395.28 630.72C394.853 594.453 382.907 567.36 359.44 549.44C341.947 536.213 320.187 529.6 294.16 529.6H209.68V724.16H299.28C323.6 724.16 344.293 718.613 361.36 707.52ZM729.915 303.04C782.395 303.04 822.075 314.56 848.955 337.6C875.835 360.64 889.275 391.787 889.275 431.04C889.275 470.293 871.142 501.013 834.875 523.2C803.302 542.827 761.062 552.64 708.155 552.64H654.395V724.16H713.915V744H535.995V724.16H596.155V322.88H535.995V303.04H729.915ZM787.515 511.68C811.835 493.333 823.568 465.813 822.715 429.12C821.862 392.427 813.328 365.547 797.115 348.48C781.328 331.413 756.368 322.88 722.235 322.88H654.395V535.36H709.435C741.435 535.36 767.462 527.467 787.515 511.68Z"/>
<path class="score" transform="rotate(-0.4 480 246) translate(130 211) scale(3.5 7)" d="M1.5 6.2C1.2 3.6 3.8 2.6 9 2.7C40 2.9 90 2.4 140 1.9C170 1.6 190 2 197.5 3.1C199.3 3.4 199.4 4.4 197.6 4.8C189 6.2 170 6.6 140 6.9C90 7.3 40 7.8 9 8.3C4.2 8.4 1.8 7.8 1.5 6.2Z"/>
</g>
<defs>
<clipPath id="clip0_2204_2">
<rect width="960" height="960" fill="white"/>
</clipPath>
</defs>
</svg>
